<svg xml:space="preserve" style="max-height: 500px" viewBox="250 18 224 234" y="0px" x="0px" xmlns:xlink="http://www.w3.org/1999/xlink" xmlns="http://www.w3.org/2000/svg" version="1.1" width="224" height="234">
<g id="OBJECTS">
	<g>
		<g>
			<path d="M453.2,345.293c-2.092-11.193-7.087-23.712-16.33-34.269c3.613-13.495,9.995-43.505-2.04-51.75&#10;&#9;&#9;&#9;&#9;c-12.121-8.303-41.183,16.354-53.828,28.038c-7.313,0.146-16.551,1.372-27.018,3.377c-10.486,1.911-19.545,4.106-26.417,6.611&#10;&#9;&#9;&#9;&#9;c-16.018-6.334-52.02-18.817-60.318-6.703c-8.242,12.031,8.533,37.695,16.794,48.983c-4.81,13.186-4.946,26.667-2.853,37.863&#10;&#9;&#9;&#9;&#9;c1.81,9.681,4.771,19.135,8.897,28.371c6.531,14.615,19.356,25.071,34.496,28.665c-0.565,2.001-0.862,4.063-0.862,6.169&#10;&#9;&#9;&#9;&#9;c0,18.971,23.941,34.35,53.474,34.35c29.533,0,53.474-15.379,53.474-34.35c0-7.494-3.739-14.427-10.08-20.073&#10;&#9;&#9;&#9;&#9;c1.019-0.395,2.036-0.796,3.052-1.207c18.299-7.408,30.512-24.689,31.512-44.408C455.664,364.859,455.01,354.974,453.2,345.293z" style="fill:#B2B8C4;"/>
			<g>
				<path d="M365.674,295.656c2.995,16.025,0.759,29.88-4.971,30.951&#10;&#9;&#9;&#9;&#9;&#9;c-5.743,1.073-12.832-11.038-15.828-27.063c-0.41-2.196-0.724-4.348-0.935-6.429c6.704-1.57,13.465-2.834,20.286-3.779&#10;&#9;&#9;&#9;&#9;&#9;C364.781,291.353,365.266,293.472,365.674,295.656z" style="fill:#95A1B3;"/>
				<g>
					<path d="M342.358,294.566c2.993,16.013,0.771,29.877-4.971,30.951&#10;&#9;&#9;&#9;&#9;&#9;&#9;c-5.522,1.032-12.321-10.206-15.484-25.362c3.396-1.6,6.966-2.953,10.674-4.04c3.18-0.925,6.371-1.788,9.578-2.565&#10;&#9;&#9;&#9;&#9;&#9;&#9;C342.232,293.891,342.293,294.222,342.358,294.566z" style="fill:#95A1B3;"/>
					<path d="M387.292,287.793c2.561,15.332,0.294,28.341-5.253,29.378&#10;&#9;&#9;&#9;&#9;&#9;&#9;c-5.743,1.073-12.822-11.052-15.815-27.065c-0.064-0.344-0.126-0.675-0.178-1.021c3.755-0.499,7.542-0.889,11.334-1.191&#10;&#9;&#9;&#9;&#9;&#9;&#9;C380.72,287.624,384.031,287.602,387.292,287.793z" style="fill:#95A1B3;"/>
				</g>
			</g>
			<path d="M427.473,286.163c0,0,2.358,3.445,3.415,7.604c0.985,3.841-0.804,7.249-3.64,9.062&#10;&#9;&#9;&#9;&#9;c-7.811-6.121-16.882-10.623-26.642-13.104c-0.309-2.127,0.187-4.365,1.614-6.245c5.724-7.559,13.995-16.103,21.257-14.615&#10;&#9;&#9;&#9;&#9;C436.13,271.464,427.473,286.163,427.473,286.163z" style="fill:#FFFFFF;"/>
			<path d="M283.811,313.016c0,0-0.955,4.065-0.438,8.324c0.469,3.938,3.368,6.469,6.667,7.135&#10;&#9;&#9;&#9;&#9;c5.073-8.53,11.905-16.004,20.11-21.843c-0.481-2.095-1.752-4.003-3.761-5.24c-8.068-4.981-18.866-9.96-25.102-5.95&#10;&#9;&#9;&#9;&#9;C270.43,302.436,283.811,313.016,283.811,313.016z" style="fill:#FFFFFF;"/>
			<path d="M456.405,344.694c-1.565-8.376-5.608-22.102-15.95-34.51c1.867-7.244,4.004-17.283,4.511-26.836&#10;&#9;&#9;&#9;&#9;c0.716-13.497-2.076-22.503-8.299-26.766c-6.524-4.469-16.437-2.356-30.306,6.46c-9.924,6.308-19.827,14.772-26.673,21.05&#10;&#9;&#9;&#9;&#9;c-6.992,0.247-15.791,1.378-26.29,3.389c-10.539,1.921-19.16,4.046-25.773,6.343c-24.221-9.469-54.358-17.793-63.073-5.072&#10;&#9;&#9;&#9;&#9;c-4.264,6.224-3.614,15.63,1.931,27.956c3.932,8.74,9.551,17.321,13.908,23.392c-5.162,15.307-3.974,29.567-2.408,37.943&#10;&#9;&#9;&#9;&#9;c1.851,9.901,4.921,19.692,9.125,29.103c4.21,9.419,10.956,17.39,19.509,23.05c8.569,5.671,18.544,8.751,28.845,8.906&#10;&#9;&#9;&#9;&#9;c0.017,0,0.034,0,0.05,0c1.778,0,3.233-1.428,3.26-3.212c0.027-1.801-1.41-3.283-3.211-3.31&#10;&#9;&#9;&#9;&#9;c-9.052-0.137-17.816-2.842-25.344-7.824c-7.519-4.976-13.451-11.986-17.154-20.272c-3.996-8.943-6.912-18.243-8.669-27.64&#10;&#9;&#9;&#9;&#9;c-1.94-10.381-3.271-30.635,9.615-49.651c1.01-1.491,0.621-3.519-0.871-4.529c-1.491-1.011-3.519-0.621-4.529,0.87&#10;&#9;&#9;&#9;&#9;c-2.1,3.098-3.849,6.224-5.313,9.338c-10.427-15.308-18.632-32.745-13.364-40.435c4.387-6.405,22.888-4.404,49.015,5.086&#10;&#9;&#9;&#9;&#9;c-3.786,1.958-7.371,4.107-10.67,6.4c-1.479,1.028-1.844,3.06-0.816,4.539c0.633,0.911,1.649,1.4,2.681,1.4&#10;&#9;&#9;&#9;&#9;c0.642,0,1.291-0.189,1.858-0.584c3.448-2.398,7.24-4.63,11.266-6.635c6.409-3.186,16.94-6.129,31.33-8.752&#10;&#9;&#9;&#9;&#9;c14.337-2.746,25.22-3.806,32.345-3.15c4.482,0.416,8.824,1.128,12.905,2.118c1.751,0.425,3.513-0.65,3.938-2.4&#10;&#9;&#9;&#9;&#9;c0.424-1.75-0.651-3.513-2.401-3.938c-3.905-0.947-8.024-1.656-12.266-2.114c6.039-5.267,13.41-11.2,20.743-15.862&#10;&#9;&#9;&#9;&#9;c10.948-6.96,19.158-9.298,23.121-6.584c6.658,4.561,7.398,20.28,2.159,42.536c-2.491-2.377-5.254-4.661-8.333-6.794&#10;&#9;&#9;&#9;&#9;c-1.482-1.026-3.512-0.656-4.537,0.824c-1.025,1.481-0.656,3.512,0.825,4.538c18.885,13.078,24.96,32.445,26.9,42.826&#10;&#9;&#9;&#9;&#9;c1.757,9.398,2.396,19.123,1.9,28.905c-0.46,9.065-3.459,17.744-8.673,25.1c-5.22,7.365-12.415,13.053-20.807,16.45&#10;&#9;&#9;&#9;&#9;c-1.669,0.676-2.475,2.577-1.799,4.247c0.514,1.269,1.735,2.038,3.024,2.038c0.407,0,0.822-0.077,1.222-0.239&#10;&#9;&#9;&#9;&#9;c9.549-3.866,17.738-10.341,23.68-18.724c5.931-8.368,9.342-18.237,9.865-28.541C458.93,364.833,458.256,354.594,456.405,344.694&#10;&#9;&#9;&#9;&#9;z" style="fill:#70838E;"/>
			<g>
				<g>
					<path d="M416.851,377.73c-1.539,0-2.909-1.095-3.202-2.663c-0.331-1.771,0.836-3.474,2.606-3.805&#10;&#9;&#9;&#9;&#9;&#9;&#9;l15.245-2.849c1.771-0.329,3.474,0.836,3.805,2.607c0.331,1.77-0.836,3.474-2.606,3.805l-15.245,2.849&#10;&#9;&#9;&#9;&#9;&#9;&#9;C417.252,377.711,417.05,377.73,416.851,377.73z" style="fill:#95A1B3;"/>
					<path d="M432.008,389.719c-0.183,0-0.368-0.015-0.555-0.047l-13.336-2.288&#10;&#9;&#9;&#9;&#9;&#9;&#9;c-1.775-0.305-2.967-1.991-2.662-3.766c0.304-1.775,1.986-2.969,3.766-2.663l13.336,2.288c1.775,0.305,2.967,1.991,2.662,3.766&#10;&#9;&#9;&#9;&#9;&#9;&#9;C434.946,388.597,433.567,389.719,432.008,389.719z" style="fill:#95A1B3;"/>
				</g>
				<g>
					<path d="M310.37,397.633c-1.539,0-2.909-1.094-3.202-2.663c-0.331-1.77,0.836-3.474,2.606-3.805&#10;&#9;&#9;&#9;&#9;&#9;&#9;l15.245-2.849c1.771-0.33,3.474,0.836,3.805,2.607c0.331,1.771-0.836,3.474-2.606,3.805l-15.245,2.849&#10;&#9;&#9;&#9;&#9;&#9;&#9;C310.771,397.615,310.569,397.633,310.37,397.633z" style="fill:#95A1B3;"/>
					<path d="M315.826,411.435c-1.109,0-2.19-0.566-2.801-1.586c-0.925-1.545-0.423-3.548,1.123-4.473&#10;&#9;&#9;&#9;&#9;&#9;&#9;l11.609-6.951c1.544-0.925,3.548-0.423,4.473,1.123c0.925,1.545,0.422,3.548-1.123,4.473l-11.609,6.951&#10;&#9;&#9;&#9;&#9;&#9;&#9;C316.973,411.286,316.396,411.435,315.826,411.435z" style="fill:#95A1B3;"/>
				</g>
			</g>
			<g>
				<path d="M387.836,351.462c-0.89,0-1.776-0.362-2.42-1.074c-1.208-1.336-1.104-3.398,0.231-4.606&#10;&#9;&#9;&#9;&#9;&#9;l7.08-6.403c1.336-1.208,3.398-1.105,4.606,0.231c1.208,1.336,1.104,3.398-0.231,4.606l-7.08,6.403&#10;&#9;&#9;&#9;&#9;&#9;C389.399,351.184,388.616,351.462,387.836,351.462z" style="fill:#FFFFFF;"/>
				<path d="M343.19,359.808c-0.388,0-0.782-0.07-1.165-0.217l-8.915-3.413&#10;&#9;&#9;&#9;&#9;&#9;c-1.682-0.644-2.523-2.529-1.879-4.211c0.644-1.682,2.53-2.524,4.211-1.879l8.915,3.413c1.682,0.644,2.523,2.53,1.879,4.211&#10;&#9;&#9;&#9;&#9;&#9;C345.739,359.011,344.502,359.808,343.19,359.808z" style="fill:#FFFFFF;"/>
			</g>
			<g>
				<path d="M398.151,388.409c0.506,3.382-0.042,6.08-1.423,8.294c-3.234,5.213-11.116,7.647-20.718,9.568&#10;&#9;&#9;&#9;&#9;&#9;c-9.754,1.96-18.236,3.511-23.193-0.376c-1.972-1.553-3.394-3.963-4.111-7.557c-0.421-2.128-0.222-4.487,0.538-6.848&#10;&#9;&#9;&#9;&#9;&#9;c0.351-1.118,0.839-2.238,1.431-3.355c3.322-6.213,10.176-11.943,18.949-13.709c3.386-0.667,6.775-0.706,9.966-0.216&#10;&#9;&#9;&#9;&#9;&#9;c5.059,0.758,9.624,2.787,12.978,5.499C395.625,382.179,397.673,385.239,398.151,388.409z" style="fill:#70838E;"/>
				<path d="M391.834,397.618c-2.332,5.044-8.425,7.144-15.89,8.665c-7.583,1.555-14.184,2.754-18.234-1.303&#10;&#9;&#9;&#9;&#9;&#9;c0.167-0.58,0.371-1.156,0.592-1.734c2.362-6.022,7.514-11.445,14.335-12.846c2.633-0.526,5.296-0.418,7.82,0.185&#10;&#9;&#9;&#9;&#9;&#9;c4.005,0.956,7.672,3.152,10.415,5.979C391.204,396.912,391.528,397.263,391.834,397.618z" style="fill:#E27FA3;"/>
				<path d="M401.375,387.92c-0.587-3.878-2.985-7.694-6.753-10.746l0,0&#10;&#9;&#9;&#9;&#9;&#9;c-3.918-3.172-9.083-5.371-14.539-6.19c-2.586-0.391-5.186-0.462-7.77-0.226l-0.702-3.628l1.055-0.197&#10;&#9;&#9;&#9;&#9;&#9;c1.771-0.331,2.938-2.034,2.606-3.805c-0.331-1.77-2.034-2.938-3.805-2.606l-8.563,1.6c-1.77,0.331-2.938,2.034-2.606,3.805&#10;&#9;&#9;&#9;&#9;&#9;c0.293,1.568,1.662,2.663,3.202,2.663c0.199,0,0.4-0.018,0.603-0.056l1.096-0.205l0.715,3.693&#10;&#9;&#9;&#9;&#9;&#9;c-7.717,2.401-14.487,7.786-18.114,14.573c-0.683,1.273-1.243,2.587-1.666,3.905c-0.932,2.914-1.149,5.843-0.625,8.475&#10;&#9;&#9;&#9;&#9;&#9;c1.428,7.127,5.525,11.268,12.178,12.307c1.208,0.189,2.472,0.274,3.796,0.274c4.354,0,9.361-0.919,15.173-2.085&#10;&#9;&#9;&#9;&#9;&#9;c6.182-1.242,13.156-2.95,18.005-6.198C400.103,399.63,402.362,394.465,401.375,387.92z M391.032,397.856&#10;&#9;&#9;&#9;&#9;&#9;c-3.924,2.628-10.431,4.171-15.66,5.222c-6.933,1.392-12.564,2.405-16.679,1.762c-2.872-0.449-5.684-1.625-6.788-7.14&#10;&#9;&#9;&#9;&#9;&#9;c-0.307-1.546-0.155-3.348,0.441-5.21c0.302-0.941,0.706-1.887,1.205-2.816c2.514-4.705,8.224-10.341,16.701-12.045&#10;&#9;&#9;&#9;&#9;&#9;c1.646-0.325,3.31-0.488,4.98-0.488c1.292,0,2.588,0.098,3.879,0.293c4.328,0.649,8.38,2.357,11.407,4.809&#10;&#9;&#9;&#9;&#9;&#9;c2.5,2.025,4.066,4.388,4.408,6.652C395.536,392.939,394.372,395.619,391.032,397.856z" style="fill:#70838E;"/>
			</g>
			<g>
				<path d="M322.07,384.209c-1.49,0-2.834-1.027-3.177-2.54c-0.398-1.756,0.702-3.503,2.458-3.901&#10;&#9;&#9;&#9;&#9;&#9;c0.34-0.077,6.023-1.355,12.629-2.107c-2.31-1.487-4.952-2.893-7.478-3.57c-1.74-0.466-2.772-2.254-2.306-3.994&#10;&#9;&#9;&#9;&#9;&#9;c0.467-1.74,2.257-2.772,3.994-2.305c8.221,2.203,16.572,9.872,16.923,10.198c0.989,0.915,1.313,2.343,0.816,3.595&#10;&#9;&#9;&#9;&#9;&#9;c-0.493,1.243-1.695,2.059-3.031,2.059c-0.009,0-0.018,0-0.027,0c-8.712-0.065-19.964,2.459-20.077,2.485&#10;&#9;&#9;&#9;&#9;&#9;C322.552,384.182,322.309,384.209,322.07,384.209z" style="fill:#5F5C5D;"/>
				<path d="M395.997,371.718c-0.891,0-1.763-0.365-2.393-1.045c-0.915-0.988-1.129-2.437-0.538-3.647&#10;&#9;&#9;&#9;&#9;&#9;c0.21-0.43,5.227-10.598,12.096-15.622c1.453-1.063,3.495-0.746,4.557,0.707c1.063,1.454,0.746,3.494-0.707,4.557&#10;&#9;&#9;&#9;&#9;&#9;c-2.111,1.544-4.067,3.809-5.684,6.03c6.431-1.685,12.192-2.546,12.537-2.597c1.778-0.261,3.439,0.968,3.701,2.75&#10;&#9;&#9;&#9;&#9;&#9;c0.263,1.782-0.968,3.439-2.749,3.702c-0.115,0.017-11.54,1.729-19.618,4.935C396.808,371.642,396.401,371.718,395.997,371.718z" style="fill:#5F5C5D;"/>
			</g>
		</g>
		<path d="M397.323,440.458c12.503-26.788,39.753-83.895,60.317-77.194&#10;&#9;&#9;&#9;c20.564,6.701-28.398,83.539-28.398,83.539L397.323,440.458z" style="fill:#B2B8C4;"/>
		<path d="M429.239,450.064c-0.599,0-1.206-0.165-1.749-0.511c-1.519-0.968-1.966-2.984-0.998-4.503&#10;&#9;&#9;&#9;c14.793-23.22,36.676-64.483,32.417-76.36c-0.451-1.256-1.132-1.952-2.279-2.326c-7.189-2.343-17.369,6.206-29.44,24.719&#10;&#9;&#9;&#9;c-11.345,17.399-21.859,39.927-26.913,50.753c-0.762,1.632-2.702,2.337-4.334,1.576c-1.632-0.762-2.337-2.702-1.576-4.334&#10;&#9;&#9;&#9;c5.116-10.962,15.762-33.772,27.359-51.557c14.254-21.861,26.331-30.811,36.924-27.359c3.06,0.997,5.272,3.185,6.399,6.326&#10;&#9;&#9;&#9;c3.006,8.386-1.619,24.372-14.139,48.871c-8.95,17.512-18.819,33.039-18.917,33.194&#10;&#9;&#9;&#9;C431.371,449.531,430.317,450.064,429.239,450.064z" style="fill:#70838E;"/>
		<path d="M359.937,443.929c-19.68-22.059-62.206-68.914-79.973-56.581&#10;&#9;&#9;&#9;c-17.767,12.333,51.228,71.839,51.228,71.839L359.937,443.929z" style="fill:#B2B8C4;"/>
		<path d="M331.191,462.448c-0.755,0-1.512-0.26-2.129-0.792c-0.139-0.12-14.057-12.153-27.666-26.35&#10;&#9;&#9;&#9;c-19.039-19.862-28.067-33.843-27.6-42.739c0.175-3.333,1.665-6.064,4.309-7.899c9.15-6.352,23.293-1.256,43.233,15.581&#10;&#9;&#9;&#9;c16.222,13.697,32.98,32.481,41.034,41.508c1.199,1.344,1.082,3.405-0.262,4.605c-1.344,1.199-3.405,1.081-4.605-0.262&#10;&#9;&#9;&#9;c-7.954-8.915-24.505-27.467-40.374-40.867c-16.887-14.259-29.094-19.517-35.306-15.206c-0.991,0.688-1.444,1.551-1.514,2.883&#10;&#9;&#9;&#9;c-0.661,12.605,32.165,45.828,53.013,63.807c1.364,1.176,1.516,3.236,0.34,4.599C333.017,462.065,332.106,462.448,331.191,462.448&#10;&#9;&#9;&#9;z" style="fill:#70838E;"/>
	</g>
	<g>
		<g>
			<path d="M227.343,260.902c-11.31-11.31-47.339,9.263-63.207,19.236c-7.854-1.306-17.985-1.842-29.586-1.79&#10;&#9;&#9;&#9;&#9;c-11.603-0.052-21.735,0.484-29.59,1.791c-15.874-9.981-51.9-30.539-63.203-19.236c-11.225,11.225,1.591,42.043,8.173,55.774&#10;&#9;&#9;&#9;&#9;c-7.784,13.147-10.626,27.546-10.626,39.945c0,10.722,1.277,21.43,3.846,32.138c5.014,20.9,21.539,36.949,42.602,41.215&#10;&#9;&#9;&#9;&#9;c0.516,0.104,1.031,0.202,1.547,0.303c-0.821,2.658-1.255,5.427-1.255,8.272c0,20.131,21.716,36.451,48.505,36.451&#10;&#9;&#9;&#9;&#9;c26.789,0,48.505-16.32,48.505-36.451c0-2.845-0.434-5.614-1.255-8.272c0.516-0.101,1.033-0.199,1.549-0.303&#10;&#9;&#9;&#9;&#9;c21.063-4.267,37.587-20.316,42.602-41.215c2.568-10.708,3.846-21.417,3.846-32.138c0-12.396-2.841-26.791-10.62-39.935&#10;&#9;&#9;&#9;&#9;C225.741,302.967,238.572,272.131,227.343,260.902z" style="fill:#B2B8C4;"/>
			<g>
				<path d="M146.067,286c0,17.747-5.164,32.124-11.51,32.124c-6.36,0-11.523-14.377-11.523-32.124&#10;&#9;&#9;&#9;&#9;&#9;c0-2.432,0.095-4.797,0.285-7.066c7.488-0.34,14.975-0.34,22.463,0.013C145.972,281.217,146.067,283.581,146.067,286z" style="fill:#95A1B3;"/>
				<g>
					<path d="M121.335,280.17c0,17.734-5.15,32.124-11.51,32.124c-6.115,0-11.143-13.385-11.496-30.236&#10;&#9;&#9;&#9;&#9;&#9;&#9;c3.954-1.033,8.045-1.766,12.23-2.188c3.587-0.353,7.175-0.639,10.762-0.829C121.335,279.423,121.335,279.79,121.335,280.17z" style="fill:#95A1B3;"/>
					<path d="M170.772,281.91c-0.326,16.918-5.354,30.385-11.497,30.385c-6.36,0-11.51-14.391-11.51-32.124&#10;&#9;&#9;&#9;&#9;&#9;&#9;c0-0.381,0-0.747,0.014-1.128c4.118,0.217,8.249,0.557,12.366,0.992C163.774,280.415,167.32,281.053,170.772,281.91z" style="fill:#95A1B3;"/>
				</g>
			</g>
			<path d="M214.094,288.202c0,0,1.835,4.158,2.133,8.819c0.285,4.307-2.31,7.596-5.707,8.969&#10;&#9;&#9;&#9;&#9;c-7.134-8.113-15.94-14.744-25.887-19.351c0.095-2.337,1.074-4.634,2.976-6.36c7.637-6.944,18.196-14.432,25.67-11.387&#10;&#9;&#9;&#9;&#9;C226.297,274.206,214.094,288.202,214.094,288.202z" style="fill:#FFFFFF;"/>
			<path d="M54.997,288.202c0,0-1.835,4.158-2.134,8.819c-0.285,4.307,2.31,7.596,5.707,8.969&#10;&#9;&#9;&#9;&#9;c7.134-8.113,15.94-14.744,25.887-19.351c-0.095-2.337-1.074-4.634-2.976-6.36c-7.637-6.944-18.196-14.432-25.67-11.387&#10;&#9;&#9;&#9;&#9;C42.794,274.206,54.997,288.202,54.997,288.202z" style="fill:#FFFFFF;"/>
			<path d="M229.644,258.592c-5.997-5.997-16.925-5.697-33.409,0.915&#10;&#9;&#9;&#9;&#9;c-11.898,4.773-24.221,11.873-32.795,17.221c-7.531-1.142-17.199-1.693-28.876-1.642c-11.701-0.046-21.377,0.503-28.91,1.644&#10;&#9;&#9;&#9;&#9;c-8.588-5.353-20.924-12.458-32.804-17.223c-16.482-6.612-27.408-6.912-33.404-0.915c-5.731,5.731-6.891,15.834-3.449,30.029&#10;&#9;&#9;&#9;&#9;c2.468,10.176,6.794,20.528,10.247,27.892c-8.618,15.334-10.201,30.838-10.201,40.108c0,10.941,1.324,22.01,3.936,32.899&#10;&#9;&#9;&#9;&#9;c2.607,10.867,8.204,20.697,16.185,28.427c7.996,7.744,18.003,13.008,28.941,15.224c0.219,0.044,0.437,0.066,0.651,0.066&#10;&#9;&#9;&#9;&#9;c1.519,0,2.879-1.068,3.193-2.614c0.358-1.765-0.783-3.486-2.549-3.844c-9.713-1.968-18.599-6.642-25.698-13.517&#10;&#9;&#9;&#9;&#9;c-7.089-6.867-12.062-15.603-14.38-25.263c-2.492-10.391-3.756-20.948-3.756-31.378c0-11.54,2.638-33.564,20.302-51.409&#10;&#9;&#9;&#9;&#9;c1.267-1.28,1.257-3.345-0.023-4.612c-1.279-1.267-3.344-1.257-4.612,0.023c-2.986,3.016-5.576,6.138-7.826,9.308&#10;&#9;&#9;&#9;&#9;c-10.292-23.105-12.699-40.377-6.349-46.728c6.114-6.113,25.883-0.157,52.353,15.541c-4.661,1.374-9.131,3.014-13.296,4.888&#10;&#9;&#9;&#9;&#9;c-1.642,0.739-2.375,2.669-1.636,4.312c0.544,1.208,1.731,1.924,2.976,1.924c0.448,0,0.902-0.093,1.336-0.288&#10;&#9;&#9;&#9;&#9;c4.182-1.881,8.698-3.517,13.422-4.861c7.521-2.135,19.422-3.184,35.352-3.11c15.926-0.076,27.803,0.975,35.322,3.11&#10;&#9;&#9;&#9;&#9;c4.727,1.346,9.243,2.981,13.424,4.862c1.642,0.738,3.573,0.007,4.312-1.636c0.739-1.642,0.006-3.573-1.636-4.312&#10;&#9;&#9;&#9;&#9;c-4.167-1.875-8.64-3.516-13.307-4.891c26.462-15.705,46.232-21.66,52.353-15.538c6.339,6.339,3.937,23.611-6.339,46.726&#10;&#9;&#9;&#9;&#9;c-2.25-3.17-4.84-6.292-7.825-9.307c-1.268-1.281-3.332-1.29-4.612-0.023c-1.28,1.267-1.29,3.332-0.023,4.612&#10;&#9;&#9;&#9;&#9;c17.665,17.845,20.303,39.869,20.303,51.409c0,10.431-1.264,20.987-3.756,31.377c-2.318,9.661-7.291,18.397-14.38,25.263&#10;&#9;&#9;&#9;&#9;c-7.098,6.875-15.985,11.549-25.698,13.517c-1.765,0.357-2.906,2.078-2.549,3.844c0.313,1.547,1.673,2.614,3.193,2.614&#10;&#9;&#9;&#9;&#9;c0.214,0,0.433-0.021,0.651-0.066c10.937-2.216,20.945-7.48,28.94-15.224c7.981-7.73,13.578-17.56,16.185-28.427&#10;&#9;&#9;&#9;&#9;c2.611-10.888,3.936-21.956,3.936-32.899c0-9.27-1.583-24.773-10.2-40.106c3.452-7.374,7.775-17.736,10.238-27.895&#10;&#9;&#9;&#9;&#9;C236.535,274.425,235.374,264.322,229.644,258.592z" style="fill:#70838E;"/>
			<g>
				<circle r="10.685" cy="365.082" cx="174.916" style="fill:#5F5C5D;"/>
				<path d="M104.869,365.082c0-5.901-4.784-10.684-10.684-10.684c-5.901,0-10.685,4.784-10.685,10.684&#10;&#9;&#9;&#9;&#9;&#9;c0,5.901,4.784,10.685,10.685,10.685C100.086,375.767,104.869,370.983,104.869,365.082z" style="fill:#5F5C5D;"/>
			</g>
			<g>
				<g>
					<path d="M201.952,383.802H185.07c-1.786,0-3.233-1.447-3.233-3.233s1.447-3.233,3.233-3.233h16.882&#10;&#9;&#9;&#9;&#9;&#9;&#9;c1.786,0,3.233,1.447,3.233,3.233S203.738,383.802,201.952,383.802z" style="fill:#95A1B3;"/>
					<path d="M198.882,399.663c-0.373,0-0.752-0.065-1.123-0.202l-13.813-5.116&#10;&#9;&#9;&#9;&#9;&#9;&#9;c-1.674-0.62-2.529-2.48-1.909-4.154c0.62-1.674,2.479-2.529,4.155-1.909l13.813,5.116c1.674,0.62,2.529,2.48,1.908,4.154&#10;&#9;&#9;&#9;&#9;&#9;&#9;C201.431,398.856,200.196,399.663,198.882,399.663z" style="fill:#95A1B3;"/>
				</g>
				<g>
					<path d="M84.031,383.802H67.149c-1.786,0-3.233-1.447-3.233-3.233s1.447-3.233,3.233-3.233h16.883&#10;&#9;&#9;&#9;&#9;&#9;&#9;c1.786,0,3.233,1.447,3.233,3.233S85.817,383.802,84.031,383.802z" style="fill:#95A1B3;"/>
					<path d="M70.219,399.663c-1.314,0-2.549-0.807-3.032-2.111c-0.62-1.674,0.235-3.534,1.909-4.154&#10;&#9;&#9;&#9;&#9;&#9;&#9;l13.813-5.116c1.673-0.62,3.533,0.234,4.154,1.909c0.62,1.674-0.234,3.534-1.909,4.154l-13.813,5.116&#10;&#9;&#9;&#9;&#9;&#9;&#9;C70.971,399.598,70.592,399.663,70.219,399.663z" style="fill:#95A1B3;"/>
				</g>
			</g>
			<g>
				<path d="M168.132,344.456c-0.163,0-0.328-0.012-0.495-0.038l-8.856-1.359&#10;&#9;&#9;&#9;&#9;&#9;c-1.765-0.271-2.976-1.921-2.705-3.686c0.271-1.764,1.918-2.975,3.686-2.705l8.856,1.359c1.765,0.271,2.976,1.921,2.705,3.686&#10;&#9;&#9;&#9;&#9;&#9;C171.077,343.312,169.7,344.456,168.132,344.456z" style="fill:#FFFFFF;"/>
				<path d="M100.969,344.456c-1.569,0-2.946-1.144-3.191-2.743c-0.271-1.765,0.94-3.415,2.705-3.686&#10;&#9;&#9;&#9;&#9;&#9;l8.856-1.359c1.769-0.271,3.414,0.94,3.686,2.705c0.271,1.765-0.94,3.415-2.705,3.686l-8.856,1.359&#10;&#9;&#9;&#9;&#9;&#9;C101.298,344.444,101.132,344.456,100.969,344.456z" style="fill:#FFFFFF;"/>
			</g>
			<path d="M151.707,370.85h-34.314c-5.368,0-9.72,4.352-9.72,9.72l0,0c0,5.368,4.352,9.72,9.72,9.72h34.314&#10;&#9;&#9;&#9;&#9;c5.368,0,9.72-4.352,9.72-9.72l0,0C161.428,375.202,157.076,370.85,151.707,370.85z" style="fill:#FFFFFF;"/>
			<path d="M151.707,367.589h-13.896v-4.209h1.48c1.801,0,3.261-1.46,3.261-3.261s-1.46-3.261-3.261-3.261&#10;&#9;&#9;&#9;&#9;h-9.483c-1.801,0-3.261,1.46-3.261,3.261s1.46,3.261,3.261,3.261h1.481v4.209h-13.896c-7.158,0-12.981,5.823-12.981,12.981&#10;&#9;&#9;&#9;&#9;c0,7.158,5.824,12.981,12.981,12.981h34.314c7.158,0,12.981-5.823,12.981-12.981&#10;&#9;&#9;&#9;&#9;C164.689,373.412,158.865,367.589,151.707,367.589z M151.707,387.029h-34.314c-3.562,0-6.459-2.897-6.459-6.459&#10;&#9;&#9;&#9;&#9;c0-3.561,2.897-6.459,6.459-6.459h34.314c3.562,0,6.459,2.898,6.459,6.459C158.167,384.132,155.269,387.029,151.707,387.029z" style="fill:#70838E;"/>
		</g>
		<g>
			<g>
				<path d="M116.207,431.696c-1.714-1.714-3.517-3.241-5.367-4.585c-0.027-1.193-0.197-2.401-0.527-3.603&#10;&#9;&#9;&#9;&#9;&#9;l-1.851-6.738c-2.167-7.889-10.318-12.527-18.206-10.36l-0.971,0.267c-2.72-7.298-8.066-11.414-13.371-9.957&#10;&#9;&#9;&#9;&#9;&#9;c-6.339,1.741-6.665,9.184-3.043,23.239c-0.375,2.101-0.316,4.312,0.287,6.507l1.851,6.738c0.39,1.419,0.976,2.732,1.717,3.92&#10;&#9;&#9;&#9;&#9;&#9;c0.454,7.298,4.423,15.696,11.389,22.663c11.738,11.738,27.542,14.966,35.3,7.208&#10;&#9;&#9;&#9;&#9;&#9;C131.173,459.239,127.945,443.435,116.207,431.696z" style="fill:#B2B8C4;"/>
				<path d="M130.32,450.188c-1.486-7.288-5.678-14.674-11.803-20.799c-1.462-1.462-2.98-2.797-4.527-3.993&#10;&#9;&#9;&#9;&#9;&#9;c-0.106-0.921-0.282-1.84-0.532-2.751l-1.85-6.738c-1.278-4.655-4.293-8.534-8.489-10.921c-3.655-2.08-7.826-2.811-11.918-2.119&#10;&#9;&#9;&#9;&#9;&#9;c-3.657-7.328-9.895-11.015-16.146-9.285c-3.089,0.847-6.922,3.23-7.642,9.777c-0.433,3.935,0.247,9.261,2.13,16.708&#10;&#9;&#9;&#9;&#9;&#9;c-0.33,2.361-0.198,4.824,0.472,7.264l1.851,6.737c0.397,1.446,0.962,2.817,1.678,4.091c0.759,8.174,5.189,16.845,12.271,23.928&#10;&#9;&#9;&#9;&#9;&#9;c6.12,6.126,13.502,10.321,20.787,11.811c1.942,0.397,3.821,0.593,5.621,0.593c5.405,0,10.081-1.771,13.497-5.187&#10;&#9;&#9;&#9;&#9;&#9;C130.271,464.752,131.905,457.963,130.32,450.188z M94.198,409.138c1.977,0,3.93,0.512,5.695,1.516&#10;&#9;&#9;&#9;&#9;&#9;c2.681,1.526,4.608,4.005,5.425,6.98l1.85,6.738c0.817,2.975,0.427,6.09-1.099,8.772c-1.526,2.682-4.005,4.609-6.98,5.425&#10;&#9;&#9;&#9;&#9;&#9;l-6.738,1.851c-2.975,0.817-6.09,0.427-8.772-1.099c-2.682-1.526-4.608-4.005-5.425-6.98l-1.851-6.738&#10;&#9;&#9;&#9;&#9;&#9;c-1.687-6.142,1.938-12.511,8.079-14.198l6.738-1.851C92.138,409.276,93.171,409.138,94.198,409.138z M76.787,399.869&#10;&#9;&#9;&#9;&#9;&#9;c2.739-0.758,5.73,1.108,7.901,4.689l-2.033,0.558c-3.372,0.926-6.257,2.757-8.47,5.155&#10;&#9;&#9;&#9;&#9;&#9;C72.867,400.955,75.505,400.221,76.787,399.869z M121.107,464.693c-2.952,2.953-7.641,3.952-13.198,2.816&#10;&#9;&#9;&#9;&#9;&#9;c-6.047-1.237-12.254-4.799-17.481-10.031c-3.483-3.483-6.245-7.47-8.06-11.503c2.201,0.919,4.538,1.388,6.897,1.388&#10;&#9;&#9;&#9;&#9;&#9;c1.606,0,3.224-0.216,4.815-0.653l6.738-1.85v0c4.655-1.279,8.534-4.293,10.921-8.489c0.569-1,1.035-2.04,1.4-3.106&#10;&#9;&#9;&#9;&#9;&#9;c0.256,0.244,0.513,0.484,0.766,0.737c5.231,5.231,8.791,11.443,10.025,17.491C125.063,457.051,124.061,461.739,121.107,464.693&#10;&#9;&#9;&#9;&#9;&#9;z" style="fill:#70838E;"/>
			</g>
			<g>
				<path d="M193.183,396.72c-5.304-1.457-10.65,2.658-13.371,9.957l-0.971-0.267&#10;&#9;&#9;&#9;&#9;&#9;c-7.888-2.166-16.04,2.472-18.206,10.36l-1.851,6.738c-0.33,1.202-0.501,2.411-0.527,3.603c-1.85,1.343-3.652,2.87-5.366,4.585&#10;&#9;&#9;&#9;&#9;&#9;c-11.738,11.738-14.966,27.543-7.209,35.3c7.757,7.757,23.561,4.53,35.3-7.208c6.966-6.966,10.934-15.364,11.389-22.663&#10;&#9;&#9;&#9;&#9;&#9;c0.741-1.188,1.327-2.5,1.717-3.92l1.851-6.738c0.603-2.195,0.662-4.406,0.287-6.507&#10;&#9;&#9;&#9;&#9;&#9;C199.848,405.904,199.523,398.462,193.183,396.72z" style="fill:#B2B8C4;"/>
				<path d="M201.685,403.358c-0.721-6.547-4.554-8.93-7.634-9.775c-6.258-1.734-12.497,1.954-16.154,9.283&#10;&#9;&#9;&#9;&#9;&#9;c-4.092-0.692-8.262,0.039-11.918,2.119c-4.196,2.388-7.211,6.266-8.489,10.921l-1.851,6.738&#10;&#9;&#9;&#9;&#9;&#9;c-0.25,0.911-0.426,1.83-0.532,2.751c-1.546,1.196-3.064,2.531-4.527,3.993c-6.125,6.125-10.316,13.512-11.803,20.8&#10;&#9;&#9;&#9;&#9;&#9;c-1.585,7.775,0.048,14.564,4.601,19.116c3.416,3.416,8.091,5.187,13.497,5.187c1.799,0,3.679-0.196,5.621-0.593&#10;&#9;&#9;&#9;&#9;&#9;c7.286-1.49,14.668-5.685,20.786-11.809c7.088-7.088,11.519-15.767,12.274-23.945c0.708-1.258,1.278-2.621,1.677-4.075&#10;&#9;&#9;&#9;&#9;&#9;l1.85-6.738c0.67-2.441,0.802-4.904,0.472-7.264C201.438,412.619,202.118,407.293,201.685,403.358z M192.319,399.872&#10;&#9;&#9;&#9;&#9;&#9;c1.275,0.35,3.912,1.083,2.593,10.4c-2.213-2.399-5.098-4.229-8.47-5.156l-2.032-0.558&#10;&#9;&#9;&#9;&#9;&#9;C186.583,400.978,189.578,399.113,192.319,399.872z M161.929,424.372l1.851-6.738c0.817-2.975,2.744-5.454,5.425-6.98&#10;&#9;&#9;&#9;&#9;&#9;c2.681-1.526,5.796-1.916,8.772-1.099l6.738,1.851c6.142,1.687,9.766,8.056,8.079,14.198l-1.85,6.738&#10;&#9;&#9;&#9;&#9;&#9;c-1.686,6.142-8.057,9.767-14.198,8.079l-6.738-1.851c-2.975-0.817-5.454-2.744-6.98-5.425&#10;&#9;&#9;&#9;&#9;&#9;C161.502,430.462,161.112,427.347,161.929,424.372z M178.669,457.478c-5.225,5.232-11.433,8.794-17.48,10.03&#10;&#9;&#9;&#9;&#9;&#9;c-5.558,1.137-10.246,0.137-13.198-2.816c-6.367-6.367-3.068-20.422,7.202-30.693c0.253-0.253,0.51-0.493,0.766-0.737&#10;&#9;&#9;&#9;&#9;&#9;c0.366,1.066,0.831,2.106,1.4,3.106c2.388,4.196,6.266,7.211,10.921,8.489v0l6.738,1.85c1.596,0.438,3.201,0.648,4.782,0.648&#10;&#9;&#9;&#9;&#9;&#9;c2.413,0,4.766-0.49,6.936-1.395C184.921,449.999,182.156,453.991,178.669,457.478z" style="fill:#70838E;"/>
			</g>
		</g>
	</g>
	<g>
		<g>
			<path d="M457.762,120.707c-1.018-11.684-4.877-25.02-13.29-36.771&#10;&#9;&#9;&#9;&#9;c5.062-13.469,14.625-43.588,3.118-53.251c-11.589-9.731-43.86,12.618-57.998,23.321c-7.51-0.586-17.103-0.26-28.034,0.742&#10;&#9;&#9;&#9;&#9;c-10.941,0.904-20.447,2.241-27.744,4.117c-15.782-8.105-51.428-24.524-61.154-12.942c-9.659,11.502,4.952,39.498,12.284,51.9&#10;&#9;&#9;&#9;&#9;c-6.258,13.032-7.754,26.837-6.736,38.524c0.88,10.106,2.964,20.095,6.263,29.977c6.443,19.288,23.336,33.059,43.54,35.351&#10;&#9;&#9;&#9;&#9;c0.776,0.088,1.551,0.169,2.327,0.249c-3.948,6.98-8.528,17.747-8.528,30.144c0,0,20.05,13.621,52.791,13.621&#10;&#9;&#9;&#9;&#9;c32.741,0,51.976-13.621,51.976-13.621c0-17.501-9.129-31.758-12.718-36.687c2.051-0.545,4.1-1.117,6.146-1.719&#10;&#9;&#9;&#9;&#9;c19.503-5.751,33.761-22.235,36.772-42.347C458.317,141.011,458.642,130.813,457.762,120.707z" style="fill:#B2B8C4;"/>
			<g>
				<path d="M373.042,61.016c1.457,16.728-2.23,30.704-8.211,31.225&#10;&#9;&#9;&#9;&#9;&#9;c-5.995,0.522-12.042-12.606-13.499-29.334c-0.2-2.293-0.304-4.529-0.311-6.684c7.03-0.935,14.087-1.55,21.174-1.832&#10;&#9;&#9;&#9;&#9;&#9;C372.559,56.515,372.843,58.736,373.042,61.016z" style="fill:#95A1B3;"/>
				<g>
					<path d="M349.251,57.552c1.456,16.715-2.217,30.703-8.212,31.225&#10;&#9;&#9;&#9;&#9;&#9;&#9;c-5.764,0.502-11.602-11.702-13.319-27.556c3.642-1.298,7.438-2.325,11.348-3.066c3.352-0.628,6.71-1.191,10.076-1.665&#10;&#9;&#9;&#9;&#9;&#9;&#9;C349.19,56.847,349.22,57.193,349.251,57.552z" style="fill:#95A1B3;"/>
					<path d="M395.992,55.132c1.081,15.974-2.552,29.08-8.342,29.584&#10;&#9;&#9;&#9;&#9;&#9;&#9;c-5.995,0.522-12.031-12.619-13.487-29.335c-0.031-0.359-0.061-0.705-0.08-1.064c3.899-0.133,7.821-0.152,11.738-0.08&#10;&#9;&#9;&#9;&#9;&#9;&#9;C389.273,54.298,392.668,54.609,395.992,55.132z" style="fill:#95A1B3;"/>
				</g>
			</g>
			<path d="M437.343,57.507c0,0,2.071,3.769,2.735,8.138c0.623,4.037-1.554,7.349-4.643,8.922&#10;&#9;&#9;&#9;&#9;c-7.391-7.061-16.235-12.588-25.99-16.114c-0.102-2.211,0.631-4.456,2.283-6.239c6.628-7.172,15.966-15.097,23.261-12.841&#10;&#9;&#9;&#9;&#9;C447.696,43.312,437.343,57.507,437.343,57.507z" style="fill:#FFFFFF;"/>
			<path d="M287.382,70.57c0,0-1.388,4.07-1.287,8.488c0.085,4.084,2.801,6.97,6.116,7.985&#10;&#9;&#9;&#9;&#9;c6.059-8.233,13.814-15.206,22.812-20.365c-0.282-2.195-1.393-4.28-3.327-5.75c-7.769-5.918-18.336-12.109-25.131-8.626&#10;&#9;&#9;&#9;&#9;C274.73,58.379,287.382,70.57,287.382,70.57z" style="fill:#FFFFFF;"/>
			<path d="M461.01,120.424c-0.762-8.741-3.525-23.219-12.887-36.974c2.645-7.236,5.854-17.329,7.337-27.083&#10;&#9;&#9;&#9;&#9;c2.087-13.727,0.143-23.209-5.778-28.181c-6.204-5.21-16.544-4.038-31.608,3.583c-10.815,5.471-21.827,13.159-29.474,18.905&#10;&#9;&#9;&#9;&#9;c-7.193-0.454-16.332-0.181-27.311,0.825c-11.009,0.91-20.072,2.221-27.081,3.912c-23.847-12.134-53.874-23.706-64.05-11.587&#10;&#9;&#9;&#9;&#9;c-4.974,5.923-5.249,15.598-0.817,28.756c3.155,9.367,8.062,18.743,11.918,25.403c-6.844,15.167-7.062,29.906-6.301,38.648&#10;&#9;&#9;&#9;&#9;c0.899,10.326,3.059,20.664,6.42,30.727c3.36,10.061,9.462,18.895,17.645,25.546c7.577,6.159,16.605,10.168,26.239,11.684&#10;&#9;&#9;&#9;&#9;c-3.434,7.079-6.714,16.669-6.714,27.479c0,1.801,1.46,3.261,3.261,3.261c1.801,0,3.261-1.46,3.261-3.261&#10;&#9;&#9;&#9;&#9;c0-10.697,3.653-20.151,7.099-26.687c6.383,0.6,12.788,0.953,19.099,1.04c0.015,0,0.031,0,0.046,0c1.78,0,3.235-1.43,3.26-3.216&#10;&#9;&#9;&#9;&#9;c0.025-1.801-1.414-3.281-3.216-3.306c-7.59-0.105-15.321-0.597-22.979-1.463c-9.284-1.053-18.012-4.716-25.241-10.592&#10;&#9;&#9;&#9;&#9;c-7.221-5.869-12.606-13.667-15.573-22.551c-3.198-9.577-5.253-19.411-6.109-29.227c-0.945-10.851-0.269-31.775,14.876-49.997&#10;&#9;&#9;&#9;&#9;c1.151-1.385,0.962-3.441-0.423-4.592c-1.386-1.151-3.441-0.962-4.592,0.423c-2.502,3.01-4.639,6.086-6.471,9.178&#10;&#9;&#9;&#9;&#9;c-11.447-20.734-15.087-36.636-9.694-43.059c5.185-6.175,24.076-2.232,50.049,10.22c-4.151,1.645-8.109,3.512-11.778,5.562&#10;&#9;&#9;&#9;&#9;c-1.572,0.879-2.134,2.865-1.255,4.438c0.597,1.069,1.707,1.671,2.849,1.671c0.539,0,1.085-0.134,1.588-0.415&#10;&#9;&#9;&#9;&#9;c3.779-2.112,7.895-4.021,12.229-5.673c6.9-2.624,17.999-4.583,33.021-5.824c14.982-1.372,26.253-1.362,33.499,0.029&#10;&#9;&#9;&#9;&#9;c4.559,0.879,8.942,2.048,13.028,3.474c1.701,0.594,3.56-0.304,4.154-2.004c0.594-1.7-0.304-3.56-2.004-4.154&#10;&#9;&#9;&#9;&#9;c-3.97-1.386-8.194-2.541-12.573-3.444c23.42-16.761,41.347-23.909,47.529-18.717c6.412,5.384,5.579,21.675-2.094,44.085&#10;&#9;&#9;&#9;&#9;c-2.338-2.729-4.974-5.388-7.959-7.92c-1.374-1.165-3.431-0.996-4.596,0.377c-1.165,1.373-0.997,3.431,0.377,4.596&#10;&#9;&#9;&#9;&#9;c18.068,15.329,22.352,35.821,23.297,46.672c0.855,9.817,0.531,19.858-0.962,29.843c-1.387,9.264-5.342,17.876-11.44,24.905&#10;&#9;&#9;&#9;&#9;c-6.104,7.038-14.068,12.155-23.029,14.797c-4.997,1.472-10.08,2.788-15.106,3.911c-1.758,0.393-2.864,2.136-2.471,3.894&#10;&#9;&#9;&#9;&#9;c0.339,1.518,1.686,2.55,3.18,2.55c0.236,0,0.475-0.026,0.714-0.079c2.354-0.526,4.721-1.099,7.085-1.703&#10;&#9;&#9;&#9;&#9;c4.026,5.975,10.831,18.252,10.831,32.96c0,1.801,1.46,3.261,3.261,3.261c1.801,0,3.261-1.46,3.261-3.261&#10;&#9;&#9;&#9;&#9;c0-15.012-6.271-27.652-10.742-34.755c0.61-0.174,1.222-0.343,1.83-0.522c10.16-2.996,19.189-8.798,26.112-16.78&#10;&#9;&#9;&#9;&#9;c6.91-7.966,11.392-17.722,12.963-28.213C461.57,141.307,461.91,130.751,461.01,120.424z" style="fill:#70838E;"/>
			<g>
				<g>
					<path d="M428.201,138.964c-1.673,0-3.097-1.28-3.245-2.978c-0.156-1.794,1.172-3.376,2.966-3.532&#10;&#9;&#9;&#9;&#9;&#9;&#9;l15.913-1.386c1.788-0.159,3.375,1.172,3.532,2.966c0.156,1.794-1.172,3.376-2.966,3.532l-15.913,1.386&#10;&#9;&#9;&#9;&#9;&#9;&#9;C428.392,138.96,428.296,138.964,428.201,138.964z" style="fill:#95A1B3;"/>
					<path d="M442.529,152.779c-0.285,0-0.576-0.038-0.865-0.117l-13.44-3.688&#10;&#9;&#9;&#9;&#9;&#9;&#9;c-1.737-0.476-2.759-2.271-2.282-4.008c0.477-1.736,2.269-2.76,4.008-2.282l13.439,3.688c1.737,0.477,2.759,2.271,2.282,4.008&#10;&#9;&#9;&#9;&#9;&#9;&#9;C445.274,151.828,443.961,152.779,442.529,152.779z" style="fill:#95A1B3;"/>
				</g>
				<g>
					<path d="M317.051,148.646c-1.673,0-3.097-1.28-3.245-2.978c-0.156-1.794,1.172-3.376,2.966-3.532&#10;&#9;&#9;&#9;&#9;&#9;&#9;l15.913-1.386c1.788-0.162,3.375,1.172,3.532,2.966c0.156,1.794-1.171,3.375-2.966,3.532l-15.913,1.386&#10;&#9;&#9;&#9;&#9;&#9;&#9;C317.242,148.642,317.146,148.646,317.051,148.646z" style="fill:#95A1B3;"/>
					<path d="M321.253,163.343c-1.222,0-2.394-0.69-2.95-1.868c-0.77-1.628-0.074-3.572,1.555-4.342&#10;&#9;&#9;&#9;&#9;&#9;&#9;l12.6-5.956c1.627-0.77,3.572-0.074,4.342,1.555c0.77,1.628,0.074,3.572-1.554,4.342l-12.6,5.956&#10;&#9;&#9;&#9;&#9;&#9;&#9;C322.194,163.242,321.72,163.343,321.253,163.343z" style="fill:#95A1B3;"/>
				</g>
			</g>
			<g>
				<path d="M400.653,103.994c-1.673,0-3.097-1.28-3.245-2.978c-0.156-1.794,1.172-3.375,2.966-3.532&#10;&#9;&#9;&#9;&#9;&#9;l8.348-0.727c1.793-0.159,3.375,1.171,3.531,2.966c0.156,1.794-1.172,3.375-2.966,3.532l-8.348,0.727&#10;&#9;&#9;&#9;&#9;&#9;C400.843,103.99,400.748,103.994,400.653,103.994z" style="fill:#FFFFFF;"/>
				<path d="M345.703,108.781c-1.673,0-3.097-1.28-3.245-2.978c-0.156-1.794,1.171-3.375,2.966-3.532&#10;&#9;&#9;&#9;&#9;&#9;l8.348-0.727c1.787-0.158,3.375,1.172,3.532,2.966c0.156,1.794-1.172,3.376-2.966,3.532l-8.348,0.727&#10;&#9;&#9;&#9;&#9;&#9;C345.894,108.777,345.798,108.781,345.703,108.781z" style="fill:#FFFFFF;"/>
			</g>
			<g>
				<path d="M329.191,132.751c-0.74,0-1.484-0.251-2.095-0.764c-1.379-1.158-1.558-3.215-0.4-4.594&#10;&#9;&#9;&#9;&#9;&#9;c6.49-7.729,18.059-8.737,25.789-2.246c1.379,1.158,1.558,3.215,0.4,4.595c-1.158,1.379-3.215,1.559-4.594,0.4&#10;&#9;&#9;&#9;&#9;&#9;c-4.975-4.178-12.422-3.529-16.6,1.446C331.045,132.355,330.121,132.751,329.191,132.751z" style="fill:#5F5C5D;"/>
				<path d="M408.219,125.867c-0.74,0-1.484-0.251-2.095-0.764c-1.379-1.158-1.558-3.215-0.4-4.594&#10;&#9;&#9;&#9;&#9;&#9;c6.491-7.729,18.059-8.736,25.788-2.246c1.379,1.158,1.558,3.215,0.401,4.594c-1.158,1.379-3.214,1.559-4.595,0.4&#10;&#9;&#9;&#9;&#9;&#9;c-4.974-4.178-12.422-3.529-16.599,1.446C410.073,125.471,409.149,125.867,408.219,125.867z" style="fill:#5F5C5D;"/>
			</g>
			<g>
				<path d="M397.208,141.247c0.126,1.589,0.015,3.134-0.295,4.62c-0.98,4.744-3.984,8.788-8.143,11.111&#10;&#9;&#9;&#9;&#9;&#9;c-2.031,1.132-4.342,1.863-6.83,2.041c-8.295,0.632-15.635-4.962-17.419-12.847c-0.185-0.784-0.307-1.599-0.367-2.433&#10;&#9;&#9;&#9;&#9;&#9;c-0.162-2.154,0.123-3.921,0.757-5.383c1.265-2.82,3.883-4.468,7.268-5.46c2.266-0.662,4.893-1.02,7.702-1.226&#10;&#9;&#9;&#9;&#9;&#9;c6.975-0.53,13.011,0.015,15.779,4.382C396.524,137.396,397.047,139.106,397.208,141.247z" style="fill:#70838E;"/>
				<path d="M388.755,154.734c0.053,0.757,0.054,1.505,0.015,2.244c-2.031,1.132-4.342,1.863-6.83,2.041&#10;&#9;&#9;&#9;&#9;&#9;c-8.295,0.632-15.635-4.962-17.419-12.847c2.083-0.53,4.418-0.837,6.892-1.026c6.989-0.518,13.012,0.028,15.78,4.395&#10;&#9;&#9;&#9;&#9;&#9;C388.057,150.872,388.594,152.593,388.755,154.734z" style="fill:#E27FA3;"/>
				<path d="M400.472,141.007c-0.89-11.822-11.149-12.963-17.625-12.784l-0.408-4.683l1.22-0.106&#10;&#9;&#9;&#9;&#9;&#9;c1.794-0.156,3.122-1.737,2.966-3.532c-0.156-1.794-1.745-3.126-3.532-2.966l-8.939,0.779c-1.794,0.156-3.122,1.738-2.966,3.532&#10;&#9;&#9;&#9;&#9;&#9;c0.148,1.698,1.572,2.978,3.245,2.978c0.095,0,0.191-0.004,0.287-0.012l1.22-0.106l0.401,4.61&#10;&#9;&#9;&#9;&#9;&#9;c-6.432,0.803-16.324,3.491-15.438,15.268c0,0,0,0,0,0c0.783,10.405,9.499,18.352,19.769,18.352&#10;&#9;&#9;&#9;&#9;&#9;c0.497,0,0.999-0.019,1.502-0.056C393.085,161.458,401.292,151.916,400.472,141.007z M381.687,155.775&#10;&#9;&#9;&#9;&#9;&#9;c-7.323,0.551-13.728-4.958-14.279-12.281v0c-0.361-4.805,1.603-7.75,12.709-8.586c11.108-0.835,13.49,1.783,13.851,6.588&#10;&#9;&#9;&#9;&#9;&#9;C394.518,148.819,389.009,155.224,381.687,155.775z" style="fill:#70838E;"/>
			</g>
		</g>
		<g>
			<path d="M308.564,91.405l5.954-5.954c1.649-1.649,4.323-1.649,5.973,0l5.954,5.954&#10;&#9;&#9;&#9;&#9;c4.938,4.938,4.938,12.943,0,17.881v0c-4.938,4.938-12.943,4.938-17.881,0l0,0C303.626,104.349,303.626,96.343,308.564,91.405z" style="fill:#B5F6F8;"/>
		</g>
	</g>
	<g>
		<g>
			<path d="M177.634,195.739c0.568-0.111,1.136-0.219,1.704-0.334c19.334-3.917,34.502-18.648,39.105-37.832&#10;&#9;&#9;&#9;&#9;c2.357-9.829,3.53-19.659,3.53-29.5c0-11.379-2.608-24.592-9.749-36.658c6.027-12.592,17.805-40.897,7.497-51.204&#10;&#9;&#9;&#9;&#9;c-10.381-10.381-43.453,8.502-58.019,17.657c-7.209-1.199-16.508-1.691-27.158-1.643c-10.651-0.048-19.951,0.445-27.161,1.644&#10;&#9;&#9;&#9;&#9;c-14.571-9.162-47.64-28.032-58.015-17.657c-10.304,10.304,1.461,38.592,7.502,51.195c-7.145,12.068-9.754,25.285-9.754,36.666&#10;&#9;&#9;&#9;&#9;c0,9.842,1.173,19.671,3.53,29.5c4.603,19.184,19.771,33.916,39.105,37.832c0.568,0.115,1.136,0.223,1.704,0.334&#10;&#9;&#9;&#9;&#9;c-11.508,13.313-53.066,8.211-53.066,25.22c0,15.604,34.4,21.932,59.917,8.05c7.571,10.017,20.965,16.68,36.238,16.68&#10;&#9;&#9;&#9;&#9;c15.273,0,28.667-6.663,36.238-16.68c25.517,13.882,59.917,7.553,59.917-8.05C230.701,203.95,189.142,209.053,177.634,195.739z" style="fill:#B2B8C4;"/>
			<g>
				<path d="M145.117,63.249c0,16.29-4.74,23.327-10.565,23.327c-5.838,0-10.577-7.037-10.577-23.327&#10;&#9;&#9;&#9;&#9;&#9;c0-2.233,0.087-4.403,0.262-6.486c6.873-0.312,13.746-0.312,20.619,0.012C145.029,58.859,145.117,61.029,145.117,63.249z" style="fill:#95A1B3;"/>
				<g>
					<path d="M122.415,57.898c0,16.278-4.728,29.487-10.565,29.487c-5.613,0-10.228-12.286-10.552-27.754&#10;&#9;&#9;&#9;&#9;&#9;&#9;c3.63-0.948,7.384-1.621,11.226-2.008c3.293-0.324,6.586-0.586,9.879-0.761C122.415,57.212,122.415,57.549,122.415,57.898z" style="fill:#95A1B3;"/>
					<path d="M167.794,59.495c-0.299,15.53-4.915,27.891-10.553,27.891c-5.838,0-10.565-13.209-10.565-29.487&#10;&#9;&#9;&#9;&#9;&#9;&#9;c0-0.349,0-0.686,0.012-1.035c3.779,0.199,7.572,0.511,11.351,0.91C161.37,58.123,164.625,58.709,167.794,59.495z" style="fill:#95A1B3;"/>
				</g>
			</g>
			<path d="M207.56,65.271c0,0,1.684,3.817,1.958,8.095c0.262,3.954-2.12,6.972-5.239,8.232&#10;&#9;&#9;&#9;&#9;c-6.549-7.447-14.632-13.534-23.762-17.762c0.087-2.146,0.985-4.253,2.732-5.838c7.01-6.374,16.702-13.247,23.563-10.453&#10;&#9;&#9;&#9;&#9;C218.761,52.423,207.56,65.271,207.56,65.271z" style="fill:#FFFFFF;"/>
			<path d="M61.522,65.271c0,0-1.684,3.817-1.958,8.095c-0.262,3.954,2.12,6.972,5.239,8.232&#10;&#9;&#9;&#9;&#9;c6.549-7.447,14.632-13.534,23.763-17.762c-0.087-2.146-0.986-4.253-2.732-5.838c-7.01-6.374-16.702-13.247-23.563-10.453&#10;&#9;&#9;&#9;&#9;C50.321,52.423,61.522,65.271,61.522,65.271z" style="fill:#FFFFFF;"/>
			<g>
				<g>
					<path d="M196.414,144.639h-15.497c-1.83,0-3.314-1.484-3.314-3.314c0-1.83,1.483-3.314,3.314-3.314&#10;&#9;&#9;&#9;&#9;&#9;&#9;h15.497c1.83,0,3.314,1.484,3.314,3.314C199.728,143.155,198.245,144.639,196.414,144.639z" style="fill:#95A1B3;"/>
					<path d="M193.596,159.197c-0.382,0-0.771-0.067-1.15-0.207l-12.679-4.696&#10;&#9;&#9;&#9;&#9;&#9;&#9;c-1.716-0.635-2.592-2.542-1.957-4.258c0.635-1.716,2.543-2.592,4.258-1.956l12.679,4.696c1.716,0.636,2.592,2.542,1.957,4.258&#10;&#9;&#9;&#9;&#9;&#9;&#9;C196.209,158.37,194.943,159.197,193.596,159.197z" style="fill:#95A1B3;"/>
				</g>
				<g>
					<path d="M88.173,144.639H72.676c-1.83,0-3.314-1.484-3.314-3.314c0-1.83,1.483-3.314,3.314-3.314h15.497&#10;&#9;&#9;&#9;&#9;&#9;&#9;c1.83,0,3.314,1.484,3.314,3.314C91.487,143.155,90.003,144.639,88.173,144.639z" style="fill:#95A1B3;"/>
					<path d="M75.494,159.197c-1.347,0-2.613-0.827-3.108-2.164c-0.635-1.716,0.24-3.623,1.957-4.258&#10;&#9;&#9;&#9;&#9;&#9;&#9;l12.679-4.696c1.714-0.635,3.622,0.24,4.258,1.956c0.635,1.716-0.24,3.623-1.957,4.258l-12.679,4.696&#10;&#9;&#9;&#9;&#9;&#9;&#9;C76.266,159.13,75.877,159.197,75.494,159.197z" style="fill:#95A1B3;"/>
				</g>
			</g>
			<g>
				<path d="M165.366,108.522h-8.13c-1.83,0-3.314-1.484-3.314-3.314c0-1.83,1.483-3.314,3.314-3.314h8.13&#10;&#9;&#9;&#9;&#9;&#9;c1.83,0,3.314,1.484,3.314,3.314C168.68,107.038,167.197,108.522,165.366,108.522z" style="fill:#FFFFFF;"/>
				<path d="M111.854,108.522h-8.13c-1.83,0-3.314-1.484-3.314-3.314c0-1.83,1.483-3.314,3.314-3.314h8.13&#10;&#9;&#9;&#9;&#9;&#9;c1.83,0,3.314,1.484,3.314,3.314C115.168,107.038,113.684,108.522,111.854,108.522z" style="fill:#FFFFFF;"/>
			</g>
			<path d="M151.807,125.938c-1.774-0.446-3.576,0.632-4.021,2.407c-0.562,2.238-2.57,3.801-4.884,3.801&#10;&#9;&#9;&#9;&#9;c-2.781,0-5.043-2.26-5.043-5.038v-1.242h1.038c1.83,0,3.314-1.484,3.314-3.314c0-1.83-1.483-3.314-3.314-3.314h-8.704&#10;&#9;&#9;&#9;&#9;c-1.83,0-3.314,1.484-3.314,3.314c0,1.83,1.483,3.314,3.314,3.314h1.038v1.242c0,2.778-2.26,5.038-5.038,5.038&#10;&#9;&#9;&#9;&#9;c-2.316,0-4.327-1.563-4.889-3.801c-0.446-1.775-2.245-2.852-4.021-2.407c-1.775,0.446-2.853,2.246-2.407,4.021&#10;&#9;&#9;&#9;&#9;c1.303,5.19,5.957,8.815,11.317,8.815c3.271,0,6.232-1.353,8.352-3.53c2.121,2.176,5.083,3.53,8.356,3.53&#10;&#9;&#9;&#9;&#9;c5.357,0,10.009-3.625,11.312-8.815C154.659,128.184,153.581,126.384,151.807,125.938z" style="fill:#70838E;"/>
			<g>
				<path d="M173.025,125.866c-4.784,0-9.28-1.863-12.663-5.245c-1.294-1.294-1.294-3.392,0-4.686&#10;&#9;&#9;&#9;&#9;&#9;c1.294-1.294,3.392-1.293,4.686,0c2.13,2.131,4.963,3.304,7.976,3.304c3.013,0,5.846-1.173,7.977-3.304&#10;&#9;&#9;&#9;&#9;&#9;c1.294-1.294,3.392-1.293,4.686,0c1.294,1.294,1.294,3.392,0,4.686C182.306,124.004,177.808,125.866,173.025,125.866z" style="fill:#5F5C5D;"/>
				<path d="M96.065,125.857c-4.586,0-9.172-1.745-12.663-5.236c-1.294-1.294-1.294-3.392,0-4.686&#10;&#9;&#9;&#9;&#9;&#9;c1.294-1.294,3.393-1.294,4.686,0c4.398,4.398,11.555,4.397,15.953,0c1.294-1.294,3.392-1.293,4.686,0&#10;&#9;&#9;&#9;&#9;&#9;c1.294,1.294,1.294,3.392,0,4.686C105.237,124.112,100.651,125.857,96.065,125.857z" style="fill:#5F5C5D;"/>
			</g>
		</g>
		<path d="M205.213,202.901c-6.969-1.431-14.529-2.984-19.89-5.616c8.016-2.493,15.333-6.817,21.396-12.69&#10;&#9;&#9;&#9;c7.369-7.137,12.538-16.214,14.945-26.249c2.403-10.018,3.621-20.203,3.621-30.273c0-8.516-1.451-22.738-9.324-36.827&#10;&#9;&#9;&#9;c3.163-6.773,7.099-16.233,9.349-25.516c3.186-13.146,2.092-22.521-3.252-27.865c-10.931-10.931-39.011,2.78-61.071,16.542&#10;&#9;&#9;&#9;c-6.916-1.038-15.762-1.54-26.429-1.496c-10.685-0.043-19.543,0.459-26.465,1.498C86.028,40.654,57.94,26.946,47.021,37.865&#10;&#9;&#9;&#9;c-5.345,5.345-6.438,14.72-3.25,27.866c2.256,9.299,6.194,18.751,9.358,25.514c-7.874,14.089-9.325,28.313-9.325,36.829&#10;&#9;&#9;&#9;c0,10.07,1.218,20.255,3.621,30.273c2.408,10.034,7.576,19.111,14.945,26.249c6.064,5.873,13.381,10.197,21.398,12.69&#10;&#9;&#9;&#9;c-5.36,2.63-12.922,4.183-19.891,5.615c-14.16,2.909-28.802,5.918-28.802,18.06c0,6.474,4.396,11.935,12.379,15.375&#10;&#9;&#9;&#9;c5.56,2.397,12.521,3.672,20.004,3.672c15.004,0,32.121-5.129,44.297-16.642c1.332-1.254,1.388-3.354,0.134-4.681&#10;&#9;&#9;&#9;c-1.259-1.332-3.358-1.392-4.685-0.134c-7.556,7.142-18.06,12.108-29.586,13.987c-10.095,1.646-20.392,0.793-27.543-2.289&#10;&#9;&#9;&#9;c-3.125-1.349-8.371-4.345-8.371-9.289c0-6.267,9.306-8.651,23.504-11.569c10.468-2.152,21.215-4.364,27.378-10.061&#10;&#9;&#9;&#9;c3.599,0.671,7.217,1.26,10.797,1.757c0.154,0.021,0.307,0.032,0.459,0.032c1.628,0,3.048-1.201,3.278-2.859&#10;&#9;&#9;&#9;c0.252-1.813-1.014-3.486-2.827-3.737c-4.605-0.638-9.276-1.434-13.883-2.365c-8.856-1.794-16.957-6.055-23.429-12.324&#10;&#9;&#9;&#9;c-6.464-6.261-10.998-14.226-13.111-23.034c-2.282-9.512-3.438-19.178-3.438-28.727c0-10.544,2.409-30.666,18.543-46.964&#10;&#9;&#9;&#9;c1.287-1.301,1.277-3.399-0.024-4.686c-1.3-1.287-3.398-1.277-4.686,0.024c-2.61,2.637-4.887,5.363-6.885,8.13&#10;&#9;&#9;&#9;c-2.621-5.962-5.435-13.265-7.168-20.408c-2.57-10.594-2.052-18.069,1.496-21.617c3.376-3.376,11.848-2.583,23.854,2.234&#10;&#9;&#9;&#9;c8.003,3.211,16.289,7.657,23.174,11.706c-4.037,1.221-7.911,2.662-11.535,4.293l2.719,6.044c3.823-1.72,7.954-3.216,12.276-4.446&#10;&#9;&#9;&#9;c6.875-1.951,17.774-2.913,32.365-2.843c14.587-0.063,25.46,0.891,32.333,2.842c4.325,1.231,8.455,2.727,12.278,4.447l2.719-6.044&#10;&#9;&#9;&#9;c-3.627-1.632-7.503-3.073-11.544-4.295c6.875-4.046,15.155-8.489,23.169-11.703c12.009-4.817,20.482-5.611,23.859-2.234&#10;&#9;&#9;&#9;c5.678,5.678,3.529,21.195-5.661,42.028c-1.999-2.768-4.276-5.494-6.886-8.132c-1.288-1.301-3.386-1.311-4.686-0.024&#10;&#9;&#9;&#9;c-1.3,1.287-1.311,3.385-0.024,4.686c16.134,16.298,18.543,36.42,18.543,46.964c0,9.549-1.157,19.215-3.438,28.727&#10;&#9;&#9;&#9;c-2.113,8.809-6.647,16.774-13.111,23.035c-6.472,6.268-14.574,10.529-23.428,12.323c-4.571,0.924-9.203,1.715-13.769,2.35&#10;&#9;&#9;&#9;c-1.813,0.252-3.078,1.926-2.826,3.739c0.231,1.658,1.65,2.858,3.278,2.858c0.152,0,0.306-0.011,0.461-0.032&#10;&#9;&#9;&#9;c3.539-0.492,7.116-1.076,10.677-1.74c6.165,5.695,16.913,7.908,27.38,10.06c14.198,2.918,23.504,5.302,23.504,11.569&#10;&#9;&#9;&#9;c0,4.944-5.246,7.94-8.371,9.289c-7.151,3.082-17.448,3.94-27.543,2.289c-11.526-1.879-22.03-6.845-29.586-13.987&#10;&#9;&#9;&#9;c-1.332-1.259-3.427-1.198-4.685,0.134c-1.254,1.328-1.198,3.427,0.134,4.681c12.181,11.513,29.293,16.642,44.297,16.642&#10;&#9;&#9;&#9;c7.483,0,14.444-1.276,20.004-3.672c7.983-3.44,12.379-8.901,12.379-15.375C234.015,208.819,219.373,205.81,205.213,202.901z" style="fill:#70838E;"/>
		<g>
			<path d="M192.594,57.445c0,16.607-24.956,29.131-58.05,29.131s-58.05-12.524-58.05-29.131&#10;&#9;&#9;&#9;&#9;c0-16.607,24.956-29.131,58.05-29.131S192.594,40.838,192.594,57.445z M170.695,57.445c0-4.091-13.725-11.603-36.151-11.603&#10;&#9;&#9;&#9;&#9;c-22.426,0-36.151,7.512-36.151,11.603c0,4.091,13.725,11.603,36.151,11.603C156.97,69.048,170.695,61.536,170.695,57.445z" style="fill:#FFFFA1;"/>
			<g>
				<path d="M177.466,33.69c-11.166-5.604-26.41-8.69-42.921-8.69s-31.755,3.086-42.922,8.69&#10;&#9;&#9;&#9;&#9;&#9;C79.73,39.658,73.18,48.094,73.18,57.445c0,9.351,6.55,17.787,18.442,23.755c11.167,5.604,26.41,8.69,42.922,8.69&#10;&#9;&#9;&#9;&#9;&#9;s31.755-3.086,42.921-8.69c11.893-5.968,18.442-14.404,18.442-23.755C195.908,48.094,189.358,39.658,177.466,33.69z&#10;&#9;&#9;&#9;&#9;&#9; M134.544,83.263c-30.694,0-54.737-11.341-54.737-25.818c0-14.477,24.043-25.818,54.737-25.818&#10;&#9;&#9;&#9;&#9;&#9;c30.693,0,54.736,11.34,54.736,25.818C189.281,71.922,165.238,83.263,134.544,83.263z" style="fill:#F9CB71;"/>
				<path d="M176.978,50.2c-1.635-0.821-3.627-0.163-4.449,1.473c-0.195,0.387-0.412,0.758-0.652,1.121&#10;&#9;&#9;&#9;&#9;&#9;c-5.433-5.829-20.561-10.265-37.333-10.265c-16.772,0-31.9,4.436-37.333,10.265c-0.24-0.363-0.457-0.734-0.652-1.121&#10;&#9;&#9;&#9;&#9;&#9;c-0.822-1.635-2.814-2.294-4.449-1.473c-1.635,0.822-2.295,2.814-1.473,4.449c1.843,3.666,4.701,6.132,7.973,8.751&#10;&#9;&#9;&#9;&#9;&#9;c0.008,0.006,0.017,0.01,0.024,0.016c6.348,5.165,20.428,8.945,35.909,8.945c15.481,0,29.56-3.78,35.909-8.945&#10;&#9;&#9;&#9;&#9;&#9;c0.008-0.006,0.016-0.01,0.024-0.016c3.272-2.619,6.13-5.085,7.973-8.751C179.272,53.014,178.613,51.022,176.978,50.2z&#10;&#9;&#9;&#9;&#9;&#9; M134.544,65.734c-11.322,0-19.282-1.937-23.965-3.561c-4.19-1.453-6.582-2.932-7.821-3.941&#10;&#9;&#9;&#9;&#9;&#9;c-0.002-0.002-0.004-0.004-0.006-0.006c-0.005-0.004-0.009-0.007-0.014-0.011c-0.372-0.304-0.642-0.567-0.82-0.77&#10;&#9;&#9;&#9;&#9;&#9;c0.766-0.876,3.176-2.825,8.661-4.728c4.684-1.625,12.643-3.561,23.965-3.561s19.281,1.937,23.964,3.561&#10;&#9;&#9;&#9;&#9;&#9;c5.485,1.903,7.895,3.852,8.661,4.728c-0.177,0.203-0.448,0.465-0.819,0.769c-0.005,0.004-0.01,0.008-0.015,0.012&#10;&#9;&#9;&#9;&#9;&#9;c-0.002,0.002-0.004,0.004-0.007,0.006c-1.239,1.009-3.63,2.487-7.82,3.941C153.826,63.797,145.867,65.734,134.544,65.734z" style="fill:#F9CB71;"/>
			</g>
		</g>
	</g>
</g>
</svg>
